<svg width="32" height="33" viewBox="0 0 32 33" fill="none" xmlns="http://www.w3.org/2000/svg">
<path d="M10.6987 13.7912C10.784 17.9512 12.864 20.4472 16.512 20.4472H16.7253V18.0685C18.064 18.2019 19.0773 19.1832 19.4827 20.4472H21.376C21.1818 19.7289 20.8376 19.06 20.366 18.4845C19.8943 17.909 19.3061 17.4401 18.64 17.1085C19.2369 16.745 19.7524 16.2624 20.1543 15.6907C20.5563 15.119 20.836 14.4705 20.976 13.7859H19.2587C18.8853 15.1085 17.776 16.3085 16.7253 16.4205V13.7912H15.0027V18.3992C13.936 18.1325 12.592 16.8419 12.5333 13.7912H10.6987Z" fill="#F4F4F4"/>
<path fill-rule="evenodd" clip-rule="evenodd" d="M16 0.921875C24.8366 0.921875 32 8.08532 32 16.9219C32 25.7584 24.8366 32.9219 16 32.9219C7.16344 32.9219 0 25.7584 0 16.9219C0 8.08532 7.16344 0.921875 16 0.921875ZM8 16.6019C8 12.9805 8 11.1725 9.12 10.0419C10.256 8.92188 12.064 8.92188 15.68 8.92188H16.32C19.9413 8.92188 21.7493 8.92188 22.88 10.0419C24 11.1779 24 12.9859 24 16.6019V17.2419C24 20.8632 24 22.6712 22.88 23.8019C21.744 24.9219 19.936 24.9219 16.32 24.9219H15.68C12.0587 24.9219 10.2507 24.9219 9.12 23.8019C8 22.6659 8 20.8579 8 17.2419V16.6019Z" fill="#F4F4F4"/>
</svg>
