<svg width="32" height="33" viewBox="0 0 32 33" fill="none" xmlns="http://www.w3.org/2000/svg">
<path d="M18.6 16.9219L14.4 14.5219V19.3219L18.6 16.9219Z" fill="#F4F4F4"/>
<path fill-rule="evenodd" clip-rule="evenodd" d="M0 16.9219C0 8.08532 7.16344 0.921875 16 0.921875C24.8366 0.921875 32 8.08532 32 16.9219C32 25.7584 24.8366 32.9219 16 32.9219C7.16344 32.9219 0 25.7584 0 16.9219ZM22.2 11.6219C22.9 11.8219 23.4 12.3219 23.6 13.0219C24 14.3219 24 16.9219 24 16.9219C24 16.9219 24 19.5219 23.7 20.8219C23.5 21.5219 23 22.0219 22.3 22.2219C21 22.5219 16 22.5219 16 22.5219C16 22.5219 10.9 22.5219 9.7 22.2219C9 22.0219 8.5 21.5219 8.3 20.8219C8 19.5219 8 16.9219 8 16.9219C8 16.9219 8 14.3219 8.2 13.0219C8.4 12.3219 8.90001 11.8219 9.60001 11.6219C10.9 11.3219 15.9 11.3219 15.9 11.3219C15.9 11.3219 21 11.3219 22.2 11.6219Z" fill="#F4F4F4"/>
</svg>
