<svg width="32" height="33" viewBox="0 0 32 33" fill="none" xmlns="http://www.w3.org/2000/svg">
<path d="M16.0309 10.3902C17.1335 10.3902 18.0329 11.2896 18.0329 12.3921C18.0329 13.4946 17.1335 14.394 16.0309 14.394C14.9285 14.394 14.0291 13.4946 14.0291 12.3921C14 11.2896 14.8995 10.3902 16.0309 10.3902Z" fill="#F4F4F4"/>
<path fill-rule="evenodd" clip-rule="evenodd" d="M16 0.921875C7.16344 0.921875 0 8.08532 0 16.9219C0 25.7584 7.16344 32.9219 16 32.9219C24.8366 32.9219 32 25.7584 32 16.9219C32 8.08532 24.8366 0.921875 16 0.921875ZM16.0309 17.2373C18.7003 17.2373 20.8763 15.0613 20.8763 12.3921C20.8763 9.72289 18.7003 7.54688 16.0309 7.54688C13.3327 7.54688 11.1567 9.72289 11.1567 12.3921C11.1567 15.0613 13.3327 17.2373 16.0309 17.2373ZM17.9749 21.2123C18.9613 20.9801 19.9188 20.6029 20.7892 20.0517C21.4565 19.6455 21.6596 18.7461 21.2244 18.0788C20.8183 17.4115 19.9188 17.2084 19.2515 17.6436C17.2785 18.8912 14.6964 18.8912 12.7235 17.6436C12.0562 17.2375 11.1858 17.4115 10.7506 18.0788C10.3734 18.7461 10.5765 19.6165 11.2438 20.0227C12.1142 20.574 13.0716 20.9511 14.0581 21.1832L11.3599 23.8815C10.8086 24.4328 10.8086 25.3321 11.3599 25.8835C11.65 26.1736 11.9982 26.2896 12.3753 26.2896C12.7525 26.2896 13.1007 26.1445 13.3908 25.8835L16.06 23.2141L18.7293 25.8835C19.2805 26.4347 20.18 26.4347 20.7312 25.8835C21.2824 25.3321 21.2824 24.4328 20.7312 23.8815L17.9749 21.2123Z" fill="#F4F4F4"/>
</svg>
