<svg width="32" height="33" viewBox="0 0 32 33" fill="none" xmlns="http://www.w3.org/2000/svg">
<path fill-rule="evenodd" clip-rule="evenodd" d="M16 0.921875C7.16344 0.921875 0 8.08532 0 16.9219C0 25.7584 7.16344 32.9219 16 32.9219C24.8366 32.9219 32 25.7584 32 16.9219C32 8.08532 24.8366 0.921875 16 0.921875ZM16.0857 24.9219C16.1943 21.379 16.2857 19.7619 17.5429 18.4647C18.84 17.2076 20.4571 17.1219 24 17.0076C24 20.2019 23.9886 22.5904 22.8457 23.7676C21.6686 24.9104 19.3886 24.9219 16.0857 24.9219ZM9.15429 23.7676C8.01143 22.5904 8 20.2019 8 17.0076C11.5429 17.1162 13.16 17.2076 14.4571 18.4647C15.7143 19.7619 15.8 21.379 15.9143 24.9219C12.6114 24.9219 10.3314 24.9104 9.15429 23.7676ZM9.15429 10.0762C10.3314 8.9333 12.6171 8.92188 15.9143 8.92188C15.8057 12.4647 15.7143 14.0819 14.4571 15.379C13.16 16.6362 11.5429 16.7219 8 16.8362C8 13.6419 8.01143 11.2533 9.15429 10.0762ZM16.0857 8.92188C16.1943 12.4647 16.2857 14.0819 17.5429 15.379C18.84 16.6362 20.4571 16.7219 24 16.8362C24 13.6419 23.9886 11.2533 22.8457 10.0762C21.6686 8.9333 19.3886 8.92188 16.0857 8.92188Z" fill="#F4F4F4"/>
</svg>
